<svg width="45" height="44" viewBox="0 0 45 44" fill="none" xmlns="http://www.w3.org/2000/svg">
<path d="M43.8581 43.7521C43.6233 43.9838 43.2762 44.0611 42.9657 43.9499L7.27139 31.2228C6.03131 31.9811 4.4584 32.1587 3.01577 31.5613C0.62113 30.5694 -0.520204 27.8141 0.471684 25.4193C2.81081 19.7725 6.18806 14.718 10.5099 10.3961C14.8318 6.07421 19.8863 2.69688 25.5332 0.357838C26.1196 0.114979 26.7274 -3.8147e-06 27.3259 -3.8147e-06C29.1714 8.01086e-05 30.9262 1.09364 31.6751 2.90201C32.179 4.11871 32.1314 5.42823 31.6494 6.55263L44.0674 42.8624C44.1742 43.1745 44.0929 43.5203 43.8581 43.7521ZM12.676 31.3252L16.459 32.6739C16.9031 32.2007 17.1196 31.5493 17.0328 30.8905C16.9564 30.3104 16.6587 29.7947 16.1945 29.4385C15.7304 29.0823 15.1556 28.9284 14.5751 29.0046C13.9951 29.081 13.4795 29.3786 13.1233 29.8429C12.7951 30.2706 12.639 30.7924 12.676 31.3252ZM30.0872 3.55986C29.4579 2.04066 27.7098 1.31664 26.1909 1.94605C15.1875 6.50373 6.61758 15.0737 2.05972 26.0772C1.7549 26.813 1.7549 27.6235 2.05972 28.3595C2.36454 29.0954 2.93766 29.6685 3.67354 29.9733C4.40942 30.2781 5.21998 30.2781 5.95586 29.9733C6.69174 29.6685 7.26486 29.0954 7.56968 28.3595C9.52054 23.6495 12.3376 19.4336 15.9425 15.8287C19.5474 12.2238 23.7633 9.40687 28.4732 7.45592C29.9924 6.82677 30.7165 5.07889 30.0872 3.55986ZM37.7221 29.6202C37.6443 29.6221 37.5664 29.6265 37.4888 29.6367C36.9088 29.7131 36.3931 30.0108 36.037 30.4749C35.6808 30.9391 35.5267 31.5142 35.603 32.0942C35.7607 33.2917 36.8629 34.1375 38.0608 33.98C38.4303 33.9314 38.7772 33.7881 39.0731 33.57L37.7221 29.6202ZM39.6443 35.241C39.2256 35.469 38.7656 35.6208 38.2851 35.6841C36.1477 35.9662 34.1803 34.4557 33.899 32.3185C33.7627 31.2833 34.0377 30.257 34.6734 29.4285C35.2857 28.6306 36.1622 28.1093 37.151 27.9503L35.4429 22.9557L33.4786 24.4631C33.1021 24.7518 32.5625 24.681 32.2737 24.3044C31.9847 23.9279 32.0558 23.3884 32.4323 23.0995L34.8562 21.2397L30.4137 8.24981C30.0411 8.57379 29.612 8.84484 29.1314 9.04396C20.0237 12.8165 12.9304 19.9098 9.15806 29.0173C9.02692 29.334 8.86398 29.6281 8.67604 29.899L10.9774 30.7195C11.0577 30.0262 11.3239 29.3648 11.7598 28.7967C12.3954 27.9682 13.3157 27.437 14.3509 27.3007C14.5243 27.2779 14.6972 27.2665 14.8693 27.2665C15.7242 27.2665 16.5512 27.5458 17.2409 28.075C18.0694 28.7107 18.6006 29.6308 18.737 30.6662C18.8593 31.5956 18.6424 32.5162 18.1554 33.2788L28.838 37.0877L29.2428 36.1103C29.38 35.7793 29.6999 35.5795 30.0371 35.5795C30.1467 35.5795 30.2581 35.6007 30.3657 35.6452C30.8041 35.8268 31.0124 36.3296 30.8308 36.768L30.459 37.6656L41.8645 41.7324L39.6443 35.241Z" fill="#363853"/>
</svg>
